<?xml version="1.0" encoding="utf-8"?>
<!-- Generator: Adobe Illustrator 18.1.1, SVG Export Plug-In . SVG Version: 6.00 Build 0)  -->
<svg version="1.1" id="Layer_1" xmlns="http://www.w3.org/2000/svg" xmlns:xlink="http://www.w3.org/1999/xlink" x="0px" y="0px"
	 width="24px" height="24.001px" viewBox="-467 268.999 24 24.001" enable-background="new -467 268.999 24 24.001"
	 xml:space="preserve">
<g>
	<g>
		<g>
			<rect x="-467" y="268.999" fill="#F78E1E" width="24" height="24"/>
		</g>
	</g>
	<g>
		<g>
			<path fill="#FFFFFF" d="M-457.275,284.018v-1.887c0-1.291,0.391-1.648,2.074-2.583c0.765-0.408,1.598-0.799,1.598-1.785
				c0-0.595-0.323-1.003-0.952-1.003c-0.901,0-0.951,0.952-0.951,1.632v0.578h-4.114v-3.722c1.615-1.088,3.246-1.563,5.201-1.563
				c2.685,0,5.319,0.884,5.319,4.045c0,0.765-0.204,1.904-0.629,2.566c-0.493,0.799-1.326,1.275-2.124,1.7
				c-0.952,0.526-1.581,0.832-1.479,2.022H-457.275z M-457.003,286.822c0-1.122,0.901-1.954,1.955-1.954
				c1.088,0,1.955,0.832,1.955,1.954s-0.867,1.954-1.955,1.954C-456.102,288.776-457.003,287.944-457.003,286.822z"/>
		</g>
	</g>
</g>
</svg>
