<?xml version="1.0" encoding="utf-8"?>
<!-- Generator: Adobe Illustrator 18.1.1, SVG Export Plug-In . SVG Version: 6.00 Build 0)  -->
<svg version="1.1" id="Layer_1" xmlns="http://www.w3.org/2000/svg" xmlns:xlink="http://www.w3.org/1999/xlink" x="0px" y="0px"
	 width="36px" height="43px" viewBox="0 0 36 43" enable-background="new 0 0 36 43" xml:space="preserve">
<g>
	<g>
		<path fill="#90897F" d="M35.48,6.727c-0.238,0-0.437-0.167-0.486-0.391c-0.155-0.166-0.18-0.424-0.045-0.619
			c0.155-0.226,0.465-0.281,0.69-0.126l0.125,0.087c0.133,0.093,0.211,0.244,0.211,0.405v0.149
			C35.976,6.506,35.754,6.727,35.48,6.727z"/>
	</g>
	<g>
		<path fill="#90897F" d="M2.624,5.239c-0.172,0-0.338-0.089-0.43-0.248c-0.137-0.237-0.056-0.54,0.182-0.677l0.26-0.148
			c0.239-0.135,0.542-0.05,0.676,0.189c0.135,0.239,0.05,0.54-0.189,0.674L2.872,5.172C2.794,5.217,2.709,5.239,2.624,5.239z
			 M33.358,5.228c-0.085,0-0.171-0.021-0.249-0.067l-0.251-0.144c-0.238-0.135-0.322-0.438-0.186-0.675
			c0.135-0.238,0.437-0.321,0.677-0.186l0.259,0.148c0.237,0.137,0.318,0.44,0.18,0.677C33.695,5.14,33.528,5.228,33.358,5.228z
			 M4.983,4.01c-0.186,0-0.365-0.105-0.449-0.284C4.417,3.479,4.523,3.184,4.77,3.067l0.272-0.126
			c0.248-0.113,0.543-0.005,0.658,0.244c0.114,0.249,0.005,0.543-0.244,0.657L5.195,3.963C5.126,3.995,5.054,4.01,4.983,4.01z
			 M31.002,3.994c-0.072,0-0.143-0.015-0.212-0.047l-0.262-0.121c-0.249-0.114-0.359-0.408-0.245-0.657
			c0.114-0.249,0.41-0.356,0.658-0.245l0.273,0.127c0.247,0.117,0.354,0.412,0.237,0.66C31.365,3.89,31.187,3.994,31.002,3.994z
			 M7.436,2.981c-0.202,0-0.391-0.123-0.465-0.323C6.875,2.402,7.006,2.116,7.263,2.021l0.279-0.103
			C7.8,1.825,8.084,1.956,8.179,2.214C8.273,2.471,8.14,2.755,7.883,2.849L7.609,2.95C7.552,2.971,7.494,2.981,7.436,2.981z
			 M28.55,2.965c-0.058,0-0.116-0.01-0.174-0.031l-0.27-0.099c-0.258-0.092-0.392-0.376-0.3-0.633
			c0.093-0.257,0.376-0.392,0.635-0.299l0.282,0.104c0.257,0.096,0.388,0.381,0.292,0.637C28.941,2.842,28.751,2.965,28.55,2.965z
			 M9.966,2.154c-0.216,0-0.414-0.141-0.477-0.359c-0.076-0.263,0.077-0.538,0.34-0.613l0.289-0.081
			c0.262-0.068,0.537,0.083,0.61,0.347c0.072,0.264-0.084,0.537-0.348,0.609l-0.277,0.077C10.057,2.148,10.011,2.154,9.966,2.154z
			 M26.018,2.142c-0.045,0-0.089-0.006-0.134-0.018l-0.279-0.077c-0.265-0.071-0.421-0.344-0.349-0.608
			c0.073-0.263,0.341-0.422,0.609-0.348l0.287,0.079c0.265,0.074,0.418,0.347,0.344,0.611C26.435,2,26.235,2.142,26.018,2.142z
			 M12.554,1.537c-0.233,0-0.441-0.164-0.487-0.401c-0.052-0.269,0.123-0.529,0.392-0.581l0.292-0.056
			c0.269-0.05,0.529,0.127,0.579,0.395c0.051,0.269-0.127,0.528-0.396,0.578l-0.286,0.055C12.617,1.534,12.585,1.537,12.554,1.537z
			 M23.43,1.53c-0.032,0-0.064-0.003-0.096-0.009l-0.283-0.054c-0.27-0.049-0.448-0.307-0.399-0.576
			c0.048-0.27,0.312-0.449,0.578-0.399l0.295,0.056c0.27,0.052,0.445,0.313,0.393,0.581C23.87,1.366,23.663,1.53,23.43,1.53z
			 M20.797,1.135c-0.018,0-0.036-0.001-0.053-0.003l-0.288-0.029c-0.273-0.026-0.473-0.269-0.447-0.541
			c0.027-0.273,0.295-0.463,0.542-0.445l0.298,0.03c0.273,0.029,0.47,0.273,0.441,0.545C21.262,0.946,21.047,1.135,20.797,1.135z
			 M14.692,0.693c-0.029-0.272,0.168-0.516,0.441-0.545l0.298-0.03c0.247-0.018,0.515,0.172,0.542,0.445
			c0.026,0.272-0.174,0.515-0.447,0.541l-0.288,0.029c-0.017,0.002-0.035,0.003-0.053,0.003C14.935,1.136,14.72,0.947,14.692,0.693z
			 M18.007,0.996l-0.171-0.003c-0.274-0.005-0.493-0.231-0.488-0.504c0.004-0.273,0.2-0.476,0.505-0.487l0.154,0.004l0.123-0.004
			c0.255-0.027,0.5,0.214,0.504,0.488c0.005,0.273-0.214,0.499-0.488,0.503L18.007,0.996z"/>
	</g>
	<g>
		<path fill="#90897F" d="M0.496,6.727C0.222,6.727,0,6.506,0,6.232V6.083C0,5.92,0.081,5.767,0.217,5.674
			c0.226-0.153,0.598-0.138,0.751,0.088C1.101,5.956,1.122,6.18,0.982,6.337C0.933,6.56,0.734,6.727,0.496,6.727z"/>
	</g>
	<g>
		<path fill="#90897F" d="M15.967,41.67c-0.087,0-0.176-0.023-0.256-0.072l-0.249-0.149c-0.235-0.141-0.31-0.446-0.168-0.68
			c0.141-0.234,0.445-0.31,0.682-0.167l0.248,0.149c0.235,0.141,0.31,0.445,0.169,0.68C16.299,41.584,16.135,41.67,15.967,41.67z
			 M13.709,40.34c-0.085,0-0.172-0.022-0.251-0.069l-0.246-0.142c-0.238-0.136-0.32-0.439-0.183-0.676
			c0.136-0.238,0.439-0.319,0.678-0.183l0.255,0.148c0.236,0.138,0.315,0.442,0.176,0.677C14.045,40.253,13.879,40.34,13.709,40.34z
			 M11.465,38.986c-0.095,0-0.192-0.027-0.277-0.085l-0.247-0.17c-0.224-0.158-0.277-0.467-0.119-0.691
			c0.159-0.223,0.469-0.278,0.692-0.118l0.229,0.159c0.227,0.153,0.287,0.461,0.134,0.687C11.781,38.91,11.624,38.986,11.465,38.986
			z M9.364,37.423c-0.108,0-0.217-0.035-0.308-0.107L8.825,37.13c-0.213-0.172-0.245-0.485-0.072-0.697
			c0.174-0.212,0.486-0.243,0.699-0.072l0.222,0.177c0.215,0.17,0.251,0.482,0.08,0.697C9.655,37.359,9.511,37.423,9.364,37.423z
			 M7.354,35.744c-0.115,0-0.23-0.04-0.324-0.12l-0.16-0.139c-0.207-0.18-0.258-0.519-0.078-0.725
			c0.181-0.206,0.463-0.253,0.669-0.075c0,0,0.062,0.054,0.062,0.054l0.154,0.134c0.208,0.178,0.231,0.492,0.052,0.699
			C7.632,35.686,7.493,35.744,7.354,35.744z M5.405,33.995c-0.121,0-0.242-0.044-0.337-0.133l-0.214-0.198
			c-0.2-0.187-0.21-0.5-0.023-0.701c0.188-0.201,0.501-0.21,0.702-0.023l0.21,0.196c0.201,0.186,0.213,0.499,0.027,0.7
			C5.671,33.942,5.538,33.995,5.405,33.995z M3.563,32.139c-0.15,0-0.298-0.067-0.395-0.195l-0.178-0.236
			c-0.163-0.221-0.117-0.53,0.104-0.693c0.22-0.164,0.531-0.116,0.694,0.103l0.17,0.226c0.166,0.217,0.125,0.528-0.094,0.694
			C3.773,32.106,3.668,32.139,3.563,32.139z M2.132,29.953c-0.175,0-0.345-0.093-0.435-0.256l-0.142-0.264
			c-0.127-0.242-0.033-0.542,0.209-0.669c0.243-0.125,0.544-0.033,0.67,0.21l0.132,0.245c0.132,0.24,0.045,0.541-0.195,0.672
			C2.296,29.933,2.213,29.953,2.132,29.953z M1.079,27.565c-0.209,0-0.403-0.133-0.472-0.341l-0.091-0.283
			c-0.081-0.261,0.064-0.539,0.326-0.62c0.262-0.081,0.541,0.064,0.622,0.326l0.086,0.267c0.085,0.26-0.056,0.54-0.317,0.625
			C1.182,27.557,1.13,27.565,1.079,27.565z M0.523,25.016c-0.254,0-0.47-0.193-0.494-0.45l-0.023-0.304
			c-0.016-0.273,0.192-0.508,0.465-0.524c0.278-0.015,0.509,0.192,0.525,0.464l0.021,0.273c0.025,0.272-0.175,0.514-0.449,0.539
			C0.553,25.015,0.538,25.016,0.523,25.016z M0.496,22.404C0.222,22.404,0,22.183,0,21.909V21.62c0-0.274,0.222-0.495,0.496-0.495
			s0.496,0.222,0.496,0.495v0.289C0.993,22.183,0.771,22.404,0.496,22.404z M0.496,19.792C0.222,19.792,0,19.57,0,19.296v-0.289
			c0-0.274,0.222-0.495,0.496-0.495s0.496,0.222,0.496,0.495v0.289C0.993,19.57,0.771,19.792,0.496,19.792z M0.496,17.179
			C0.222,17.179,0,16.957,0,16.683v-0.289c0-0.274,0.222-0.495,0.496-0.495s0.496,0.222,0.496,0.495v0.289
			C0.993,16.957,0.771,17.179,0.496,17.179z M0.496,14.566C0.222,14.566,0,14.345,0,14.071v-0.289c0-0.274,0.222-0.495,0.496-0.495
			s0.496,0.222,0.496,0.495v0.289C0.993,14.345,0.771,14.566,0.496,14.566z M0.496,11.953C0.222,11.953,0,11.731,0,11.458v-0.289
			c0-0.274,0.222-0.495,0.496-0.495s0.496,0.222,0.496,0.495v0.289C0.993,11.731,0.771,11.953,0.496,11.953z M0.496,9.34
			C0.222,9.34,0,9.119,0,8.845V8.556c0-0.274,0.222-0.495,0.496-0.495s0.496,0.222,0.496,0.495v0.289
			C0.993,9.119,0.771,9.34,0.496,9.34z"/>
	</g>
	<g>
		<path fill="#90897F" d="M18.038,43c-0.149,0-0.304-0.058-0.398-0.174c-0.214-0.17-0.266-0.493-0.095-0.707
			c0.121-0.152,0.305-0.224,0.479-0.185c0.184-0.045,0.381,0.023,0.503,0.18c0.167,0.217,0.127,0.528-0.09,0.696
			C18.342,42.925,18.188,43,18.038,43z"/>
	</g>
	<path fill="#90897F" d="M20.12,41.689c-0.17,0-0.335-0.087-0.428-0.244c-0.14-0.236-0.06-0.54,0.175-0.678l0.258-0.149
		c0.238-0.137,0.541-0.053,0.677,0.186c0.136,0.238,0.052,0.54-0.186,0.675l-0.244,0.141C20.293,41.667,20.206,41.689,20.12,41.689z
		 M24.667,39.076c-0.159,0-0.316-0.077-0.412-0.22c-0.153-0.227-0.092-0.535,0.136-0.687l0.232-0.159
		c0.223-0.155,0.533-0.103,0.691,0.123c0.157,0.224,0.102,0.533-0.123,0.69l-0.247,0.168C24.859,39.049,24.763,39.076,24.667,39.076
		z M22.417,40.414c-0.159,0-0.316-0.077-0.412-0.22c-0.153-0.227-0.092-0.535,0.136-0.687l0.232-0.159
		c0.223-0.155,0.533-0.103,0.691,0.123c0.157,0.224,0.102,0.533-0.123,0.69l-0.247,0.168C22.609,40.386,22.513,40.414,22.417,40.414
		z M26.77,37.512c-0.145,0-0.291-0.064-0.389-0.187c-0.171-0.215-0.135-0.526,0.08-0.697l0.221-0.177
		c0.211-0.173,0.525-0.143,0.698,0.07c0.174,0.212,0.143,0.523-0.07,0.697l-0.231,0.187C26.987,37.477,26.879,37.512,26.77,37.512z
		 M28.776,35.822c-0.138,0-0.274-0.057-0.372-0.168c-0.181-0.205-0.162-0.519,0.045-0.699l0.214-0.19
		c0.206-0.183,0.518-0.164,0.701,0.04c0.182,0.204,0.165,0.518-0.04,0.7l-0.22,0.194C29.01,35.782,28.892,35.822,28.776,35.822z
		 M30.712,34.054c-0.132,0-0.263-0.052-0.361-0.155c-0.188-0.199-0.179-0.513,0.019-0.701L30.582,33
		c0.2-0.189,0.514-0.179,0.701,0.02c0.188,0.198,0.179,0.512-0.02,0.7l-0.209,0.199C30.957,34.01,30.834,34.054,30.712,34.054z
		 M32.546,32.182c-0.106,0-0.211-0.033-0.301-0.102c-0.218-0.165-0.261-0.477-0.094-0.694l0.17-0.226
		c0.166-0.22,0.476-0.263,0.695-0.102c0.219,0.164,0.266,0.474,0.102,0.694l-0.177,0.234C32.843,32.115,32.696,32.182,32.546,32.182
		z M33.973,29.992c-0.08,0-0.161-0.019-0.236-0.059c-0.241-0.131-0.332-0.431-0.202-0.672l0.131-0.248
		c0.126-0.244,0.428-0.339,0.669-0.213c0.243,0.126,0.339,0.425,0.213,0.668l-0.139,0.263C34.32,29.898,34.149,29.992,33.973,29.992
		z M34.997,27.589c-0.048,0-0.098-0.007-0.146-0.022c-0.262-0.08-0.409-0.358-0.328-0.619l0.08-0.267
		c0.075-0.263,0.344-0.416,0.613-0.342c0.264,0.075,0.417,0.349,0.341,0.613l-0.086,0.288C35.405,27.452,35.21,27.589,34.997,27.589
		z M35.491,25.025c-0.012,0-0.022,0-0.033-0.001c-0.274-0.018-0.481-0.254-0.463-0.526l0.013-0.274
		c0.009-0.273,0.194-0.483,0.513-0.479c0.273,0.009,0.489,0.238,0.48,0.512c-0.003,0.094-0.008,0.195-0.015,0.305
		C35.968,24.823,35.75,25.025,35.491,25.025z M35.48,22.409c-0.274,0-0.496-0.222-0.496-0.495v-0.289
		c0-0.274,0.222-0.495,0.496-0.495c0.274,0,0.496,0.222,0.496,0.495v0.289C35.976,22.188,35.754,22.409,35.48,22.409z M35.48,19.794
		c-0.274,0-0.496-0.222-0.496-0.495v-0.289c0-0.274,0.222-0.495,0.496-0.495c0.274,0,0.496,0.222,0.496,0.495v0.289
		C35.976,19.572,35.754,19.794,35.48,19.794z M35.48,17.178c-0.274,0-0.496-0.222-0.496-0.495v-0.289
		c0-0.274,0.222-0.495,0.496-0.495c0.274,0,0.496,0.222,0.496,0.495v0.289C35.976,16.956,35.754,17.178,35.48,17.178z M35.48,14.562
		c-0.274,0-0.496-0.222-0.496-0.495v-0.289c0-0.274,0.222-0.495,0.496-0.495c0.274,0,0.496,0.222,0.496,0.495v0.289
		C35.976,14.34,35.754,14.562,35.48,14.562z M35.48,11.946c-0.274,0-0.496-0.222-0.496-0.495v-0.289
		c0-0.274,0.222-0.495,0.496-0.495c0.274,0,0.496,0.222,0.496,0.495v0.289C35.976,11.724,35.754,11.946,35.48,11.946z M35.48,9.33
		c-0.274,0-0.496-0.222-0.496-0.495V8.546c0-0.274,0.222-0.495,0.496-0.495c0.274,0,0.496,0.222,0.496,0.495v0.289
		C35.976,9.108,35.754,9.33,35.48,9.33z"/>
	<path fill="#F78E1E" d="M31.803,23.07V9.644C24.853,5.092,18.03,5.349,17.901,5.353c-0.129-0.004-6.947-0.261-13.896,4.291V23.07
		c0,0,0.167,3.004,3.055,6.559c0,0,3.876,3.616,6.641,5.333c0,0,4.304,2.392,4.55,2.698c0.244-0.306,4.659-2.698,4.659-2.698
		c2.765-1.717,6.364-5.333,6.364-5.333C32.161,26.074,31.803,23.07,31.803,23.07z"/>
	<linearGradient id="SVGID_1_" gradientUnits="userSpaceOnUse" x1="14.3584" y1="20.7027" x2="22.2686" y2="20.7027">
		<stop  offset="0" style="stop-color:#FFFFFF"/>
		<stop  offset="0.5406" style="stop-color:#F4F4F4"/>
		<stop  offset="1" style="stop-color:#E7E7E7"/>
	</linearGradient>
	<path fill="url(#SVGID_1_)" d="M22.269,16.806c0-2.181-1.771-3.948-3.955-3.948c-2.185,0-3.956,1.767-3.956,3.948
		c0,1.217,0.553,2.305,1.42,3.029v6.18v0.003v0.002v0.2h0.02c0.105,1.301,1.183,2.328,2.515,2.328c1.4,0,2.535-1.133,2.535-2.53
		c0-0.234-0.042-0.456-0.102-0.67v-5.435C21.672,19.19,22.269,18.067,22.269,16.806z"/>
</g>
</svg>
